<?xml version="1.0" encoding="UTF-8"?>
<svg id="Layer_1" xmlns="http://www.w3.org/2000/svg" viewBox="0 0 1024 1024">
    <style>
        path {
            fill: #000;
        }

        @media (prefers-color-scheme: dark) {
            path {
                fill: #fff;
            }
        }
    </style>
    <path d="M259.53,713.89c-.56-5.07-.91-9.57-1.57-14.02-2.07-13.84-4.49-27.63-6.36-41.5-5.59-41.47-7.49-83.16-6.9-124.99.06-4.11,0-8.22,0-13.27-3.9,1.06-7.29,1.96-10.68,2.9-10.69,2.96-21.4,4.81-32.6,2.96-15.67-2.59-28.44-9.81-38.36-22.21-6.23-7.78-10.85-16.4-14.82-27.26,12.95,6.18,24.75,11.8,36.55,17.43.24-.37.47-.75.71-1.12-1.29-.98-2.54-2.03-3.89-2.91-9.99-6.49-20.02-12.94-30.02-19.42-4.46-2.89-7.03-7.19-8.53-12.14-2.32-7.65-4.09-15.41-4.25-24.73,3.91,5.27,6.83,9.81,10.36,13.81,3.61,4.1,7.81,7.68,12.29,11.13-8.69-13.15-17.87-25.94-19.09-42.36-1.17-15.88,2.11-30.74,10.11-44.84.87,4.22,1.74,8.45,2.59,12.67,7.17,35.23,23.2,65.36,50.18,89.66,11.93,10.74,25.23,16.13,41.17,16.1,46.6-.1,93.21.03,139.81.03,77.14,0,154.27-.1,231.41.03,6.51.01,11.94-1.72,17.41-5.12,16.79-10.43,29.28-24.92,39.94-41.18,14.65-22.35,25.96-46.4,35.54-71.29,4.94-12.83,9.53-25.79,14.26-38.7.3-.83.38-1.73.72-3.32-24.9-8.57-44.33-23.82-56.32-47.52-4.56-9-7.78-18.5-7.45-29.18,8.79-1.49,17.17-.88,25.43,1.19,19.28,4.84,36.78,13.09,50.5,27.89,4.6,4.96,9.58,6.66,16.41,4.58-.85-1.61-1.54-3.23-2.48-4.67-8.02-12.3-15.97-24.65-24.2-36.8-2.45-3.61-3.59-7.21-3.3-11.53.27-4.09.06-8.21.06-12.86-37.22-10.93-74.12-21.77-111.02-32.61v-91.12h19.88v75.65c11.51,3.33,22.64,6.56,34.88,10.11.2-3.14.51-5.73.52-8.32.06-23.41.07-46.82.09-70.23,0-2.25,0-4.49,0-7.22h20.28v91.67c11.76,3.55,23.04,6.96,35.34,10.68v-102.4h20.45v70.49c2.44-1.25,3.83-1.87,5.13-2.63,9.11-5.33,18.11-10.85,27.34-15.96,3.84-2.13,5.57-4.52,5.41-9.15-.41-11.69-.21-23.41-.25-35.11,0-2.27,0-4.54,0-7.52,6.78-1.13,13.26-.65,20.49-.17v35.86c6.03-3.5,10.7-6.65,15.73-9.02,6.33-2.98,9.43-7.15,8.22-14.43-.62-3.77-.11-7.72-.11-11.96,6.84-1.74,13.38-.55,20.62-.74.15,3.57.37,6.7.4,9.83.06,6.2-.24,12.41.09,18.59.22,4.02-1.4,6.25-4.73,8.18-12.31,7.12-24.52,14.42-36.74,21.7-18.33,10.93-36.52,22.09-55.02,32.72-5.09,2.92-6.92,6.24-6.65,12,.46,10.08.16,20.19.07,30.29-.03,3.32.68,6.21,2.61,9.02,9.74,14.19,19.42,28.42,28.91,42.78,2.79,4.22,6,6.03,11.24,6.07,11.92.08,23.86.65,35.74,1.61,16.23,1.31,29.06,8.44,38.41,22.29,9.32,13.8,9.75,13.44,26.54,15.15,14.61,1.49,29.2,3.29,43.82,4.67,7.75.73,15.51,1.26,23.17-1.44,4.35-1.53,6.99.5,7.42,5.3.6,6.57-1.09,12.76-4.23,18.5-10.22,18.66-25.66,31.62-44.97,39.91-29.01,12.46-59.35,15.13-90.45,11.19-2.26-.29-4.52-.55-7.81-.95,0,3.15,0,5.82,0,8.49.03,38.02-3.58,75.59-13.72,112.37-5.77,20.92-13.91,40.76-26.33,58.71-9.79,14.14-21.5,26.23-36.29,35.19-1.37.83-2.72,1.71-4.03,2.64-.31.22-.42.72-.94,1.69,4.28,2.83,8.54,5.86,13,8.56,20.81,12.59,41.69,25.05,62.49,37.65,3.32,2.01,6.68,4.14,9.47,6.79,6.85,6.51,8,15.11,3.15,23.18-2.35,3.91-5.21,7.56-8.13,11.09-33.82,40.83-67.66,81.63-101.57,122.39-11.59,13.93-23.25,27.82-35.13,41.51-6.5,7.49-12.55,6.86-18.32-1.28-5.71-8.07-5.36-14.45,1.06-22.45,36.9-46.01,73.78-92.03,110.66-138.05.96-1.2,1.77-2.52,3.05-4.36-6.02-2.74-11.58-5.32-17.19-7.81-22.24-9.84-44.52-19.58-66.71-29.53-3.4-1.52-6.06-1.75-9.61-.05-21.48,10.29-44.54,14.04-68.07,15.22-37.03,1.86-73.26-3.83-109.07-12.52-36.46-8.85-71.72-21.18-105.29-38.06-2.05-1.03-4.1-2.06-6.08-3.21-.97-.56-1.77-1.41-3.4-2.74,13.88-39.07,16.98-79.67,14.52-121.5h-11.84c0,3.51-.03,6.87,0,10.23.28,29.68-.81,59.28-8.17,88.19-15.69,61.61-49.21,110.63-104.1,143.84-21.84,13.21-45.71,21.38-71.22,23.98-6.29.64-10.12,3.21-13.83,8.31-24.45,33.58-49.27,66.88-74.01,100.24-8.07,10.87-16.18,21.71-24.43,32.45-2.21,2.88-4.66,5.77-7.55,7.92-8.84,6.57-20.61,3.03-24.13-7.37-2.84-8.38-2.69-16.24,3.68-23.81,14.37-17.08,25.33-36.55,36.97-55.51,20.52-33.43,41.05-66.85,61.17-100.51,4.21-7.05,9.68-10.45,17.47-11.51,22.28-3.04,44.53-6.29,66.79-9.47,2.94-.42,5.88-.93,10.24-1.62ZM822.06,335.85c-.03-8.58-6.72-14.96-15.46-14.76-8.17.19-14.79,7.02-14.6,15.05.2,8.46,6.46,14.67,14.85,14.74,8.65.07,15.25-6.44,15.21-15.03Z"/><path d="M560.59,316.55v120.7h-248.31v-120.7h248.31Z"/><path d="M784.8,592.89c13.21,9.09,25.87,17.77,38.49,26.49,18.49,12.77,37.03,25.48,55.38,38.46,3.47,2.45,6.72,5.65,9.05,9.18,5.37,8.14,4.79,16.55-1.27,24.24-5.39,6.84-11.06,13.47-16.7,20.12-45.08,53.19-90.18,106.37-135.3,159.52-2.22,2.61-4.51,5.25-7.14,7.41-6.38,5.22-13.67,5.19-20.17.15-1.99-1.54-3.82-3.29-5.63-5.04-1.3-1.26-2.45-2.67-4.16-4.56,3.1-4.04,6.03-8.08,9.2-11.92,40.05-48.42,80.14-96.82,120.21-145.22,1.17-1.41,2.37-2.81,3.47-4.27,10.66-14.17,7.93-31.53-6.88-41.3-13.58-8.97-27.45-17.52-41.22-26.19-6.79-4.28-13.68-8.4-20.48-12.66-1.69-1.05-3.22-2.35-3.79-2.77,4.7-5.33,9.29-10.4,13.72-15.59,4.3-5.04,8.44-10.21,13.22-16.02Z"/><path d="M564.11,256.37v45.5c-5.56,1.63-245.12,2.06-254.92.45v-45.65c5.19-1.36,245.05-1.72,254.92-.3Z"/><path d="M285.13,761.93c1.21-.93,1.7-1.44,2.3-1.75,24.4-12.66,42.54-32.44,59.96-52.94,14.49-17.05,25.91-36.11,35.68-56.2,1.28-2.63,2.87-5.11,4.79-8.49,12.26,6.41,24.06,12.57,36.33,18.98-31.97,53.97-78.09,86.65-139.06,100.4Z"/>
</svg>
